<svg width="36" height="35" viewBox="0 0 36 35" fill="none" xmlns="http://www.w3.org/2000/svg">
<mask id="mask0_219_114" style="mask-type:luminance" maskUnits="userSpaceOnUse" x="0" y="0" width="36" height="35">
<path d="M8.8546 21.2434C7.6913 21.2434 6.4947 21.1384 5.6219 20.3758C4.851 19.699 3.9502 19.3398 2.9369 19.3004V13.426C3.9196 13.3858 4.8025 13.0323 5.5593 12.3716C6.1583 11.8484 6.7962 11.6239 7.6042 11.34C8.6753 10.9637 10.0083 10.4952 11.778 9.15111C11.9697 9.00591 12.44 8.70011 12.6671 8.99931C12.8779 9.27721 12.8534 9.92951 12.2571 10.3823L10.3277 11.8479C10.1308 11.9976 10.0512 12.2561 10.13 12.4902C10.2087 12.7247 10.4283 12.8826 10.6755 12.8826L18.1035 12.8892C18.4391 12.8892 18.7116 13.1631 18.7116 13.4995C18.7116 13.6601 18.6477 13.8123 18.5322 13.9278C18.4172 14.0425 18.2654 14.1059 18.1039 14.1059H18.1017L12.3048 14.1015C11.9867 14.1015 11.729 14.3592 11.7286 14.6773C11.7286 14.9953 11.9863 15.2535 12.3044 15.2539H19.1623C19.3653 15.2539 19.5223 15.316 19.6291 15.4372C19.728 15.5497 19.7844 15.7133 19.784 15.887C19.784 16.0602 19.7266 16.2239 19.6282 16.3354C19.5214 16.4557 19.3653 16.517 19.1623 16.517H12.4916C12.1735 16.517 11.9154 16.7751 11.9154 17.0932C11.9154 17.4113 12.1735 17.6694 12.4916 17.6694H18.0943C18.6867 17.6703 18.716 18.1966 18.716 18.3025C18.716 18.4079 18.6854 18.9325 18.0943 18.9325H12.4916C12.1735 18.9325 11.9154 19.1906 11.9154 19.5087C11.9154 19.8267 12.1735 20.0848 12.4916 20.0848H15.9234C16.4348 20.0853 16.6168 20.381 16.6168 20.6571C16.6168 20.9301 16.4344 21.2486 15.9225 21.2486L8.8546 21.2434ZM0.5 20.2126H1.785V12.8494C1.785 12.8494 1.785 12.8485 1.785 12.8476C1.785 12.8476 1.785 12.8468 1.785 12.8463V12.5129H0.5V20.2126ZM28.1119 31.7448L25.4431 30.8939L20.7657 31.4018C20.6555 31.4136 20.5439 31.3935 20.4446 31.3436L15.1442 28.6757C14.4897 28.3454 13.749 28.5029 13.3618 29.0353L20.7727 33.315C24.2627 34.0023 28.0056 34.302 31.8985 34.2062C31.9033 34.2062 31.9081 34.2062 31.9125 34.2062C32.0394 34.2062 32.1623 34.2478 32.2634 34.3252L32.9747 34.8712L35.5 30.9376L33.5487 29.7625C32.535 29.1513 31.6732 28.6722 30.5842 28.5235L23.2989 27.5211C22.5665 27.4209 22.255 27.7517 22.2077 28.0951C22.164 28.418 22.398 28.7125 22.8045 28.8433L28.4614 30.6471C28.7646 30.7438 28.9322 31.068 28.8355 31.3712C28.7388 31.6744 28.4151 31.8411 28.1119 31.7448ZM20.3903 4.43351L21.8914 5.70841V0.133312H18.1433V5.70841L19.6444 4.43351C19.8596 4.25111 20.1751 4.25071 20.3903 4.43351ZM31.1674 0.133312H23.0438V6.95401C23.0438 7.17841 22.9134 7.38281 22.7096 7.47681C22.5061 7.57091 22.2659 7.53851 22.0949 7.39331L20.0176 5.62881L17.9403 7.39331C17.834 7.48341 17.7014 7.53021 17.5671 7.53021C17.4853 7.53021 17.4026 7.51271 17.3252 7.47681C17.1213 7.38231 16.9909 7.17841 16.9909 6.95401V0.133312H8.8673C8.4679 0.133312 8.1424 0.458412 8.1424 0.858212V9.91461C8.9688 9.58651 9.9112 9.12141 11.0811 8.23331C12.156 7.41821 13.1129 7.68111 13.5845 8.30331C14.1699 9.07501 14.0561 10.4632 12.9532 11.3002L12.3844 11.7324L18.1035 11.7377C19.0739 11.7377 19.8636 12.5283 19.8636 13.5004C19.8636 13.738 19.8159 13.969 19.7258 14.182C20.5233 14.4205 20.9363 15.1585 20.935 15.8887C20.9346 16.3455 20.7762 16.7751 20.4901 17.0989C20.2866 17.3286 20.0263 17.4939 19.7297 17.5858C19.8211 17.8133 19.8675 18.0588 19.8671 18.3038C19.8658 19.1888 19.2563 20.0844 18.0939 20.0844H17.6708C17.7351 20.2695 17.7679 20.4637 17.7675 20.6575C17.7671 21.5024 17.1195 22.4006 15.9203 22.4006L8.8529 22.3962C8.6206 22.3962 8.3826 22.3918 8.1415 22.3791V23.1583C8.1415 23.5578 8.4666 23.8833 8.8664 23.8833H31.1661C31.566 23.8833 31.891 23.5582 31.891 23.1583V0.857815C31.891 0.458415 31.566 0.132812 31.1661 0.132812L31.1674 0.133312Z" fill="white"/>
</mask>
<g mask="url(#mask0_219_114)">
<path d="M8.8546 21.2434C7.6913 21.2434 6.4947 21.1384 5.6219 20.3758C4.851 19.699 3.9502 19.3398 2.9369 19.3004V13.426C3.9196 13.3858 4.8025 13.0323 5.5593 12.3716C6.1583 11.8484 6.7962 11.6239 7.6042 11.34C8.6753 10.9637 10.0083 10.4952 11.778 9.15111C11.9697 9.00591 12.44 8.70011 12.6671 8.99931C12.8779 9.27721 12.8534 9.92951 12.2571 10.3823L10.3277 11.8479C10.1308 11.9976 10.0512 12.2561 10.13 12.4902C10.2087 12.7247 10.4283 12.8826 10.6755 12.8826L18.1035 12.8892C18.4391 12.8892 18.7116 13.1631 18.7116 13.4995C18.7116 13.6601 18.6477 13.8123 18.5322 13.9278C18.4172 14.0425 18.2654 14.1059 18.1039 14.1059H18.1017L12.3048 14.1015C11.9867 14.1015 11.729 14.3592 11.7286 14.6773C11.7286 14.9953 11.9863 15.2535 12.3044 15.2539H19.1623C19.3653 15.2539 19.5223 15.316 19.6291 15.4372C19.728 15.5497 19.7844 15.7133 19.784 15.887C19.784 16.0602 19.7266 16.2239 19.6282 16.3354C19.5214 16.4557 19.3653 16.517 19.1623 16.517H12.4916C12.1735 16.517 11.9154 16.7751 11.9154 17.0932C11.9154 17.4113 12.1735 17.6694 12.4916 17.6694H18.0943C18.6867 17.6703 18.716 18.1966 18.716 18.3025C18.716 18.4079 18.6854 18.9325 18.0943 18.9325H12.4916C12.1735 18.9325 11.9154 19.1906 11.9154 19.5087C11.9154 19.8267 12.1735 20.0848 12.4916 20.0848H15.9234C16.4348 20.0853 16.6168 20.381 16.6168 20.6571C16.6168 20.9301 16.4344 21.2486 15.9225 21.2486L8.8546 21.2434ZM0.5 20.2126H1.785V12.8494C1.785 12.8494 1.785 12.8485 1.785 12.8476C1.785 12.8476 1.785 12.8468 1.785 12.8463V12.5129H0.5V20.2126ZM28.1119 31.7448L25.4431 30.8939L20.7657 31.4018C20.6555 31.4136 20.5439 31.3935 20.4446 31.3436L15.1442 28.6757C14.4897 28.3454 13.749 28.5029 13.3618 29.0353L20.7727 33.315C24.2627 34.0023 28.0056 34.302 31.8985 34.2062C31.9033 34.2062 31.9081 34.2062 31.9125 34.2062C32.0394 34.2062 32.1623 34.2478 32.2634 34.3252L32.9747 34.8712L35.5 30.9376L33.5487 29.7625C32.535 29.1513 31.6732 28.6722 30.5842 28.5235L23.2989 27.5211C22.5665 27.4209 22.255 27.7517 22.2077 28.0951C22.164 28.418 22.398 28.7125 22.8045 28.8433L28.4614 30.6471C28.7646 30.7438 28.9322 31.068 28.8355 31.3712C28.7388 31.6744 28.4151 31.8411 28.1119 31.7448ZM20.3903 4.43351L21.8914 5.70841V0.133312H18.1433V5.70841L19.6444 4.43351C19.8596 4.25111 20.1751 4.25071 20.3903 4.43351ZM31.1674 0.133312H23.0438V6.95401C23.0438 7.17841 22.9134 7.38281 22.7096 7.47681C22.5061 7.57091 22.2659 7.53851 22.0949 7.39331L20.0176 5.62881L17.9403 7.39331C17.834 7.48341 17.7014 7.53021 17.5671 7.53021C17.4853 7.53021 17.4026 7.51271 17.3252 7.47681C17.1213 7.38231 16.9909 7.17841 16.9909 6.95401V0.133312H8.8673C8.4679 0.133312 8.1424 0.458412 8.1424 0.858212V9.91461C8.9688 9.58651 9.9112 9.12141 11.0811 8.23331C12.156 7.41821 13.1129 7.68111 13.5845 8.30331C14.1699 9.07501 14.0561 10.4632 12.9532 11.3002L12.3844 11.7324L18.1035 11.7377C19.0739 11.7377 19.8636 12.5283 19.8636 13.5004C19.8636 13.738 19.8159 13.969 19.7258 14.182C20.5233 14.4205 20.9363 15.1585 20.935 15.8887C20.9346 16.3455 20.7762 16.7751 20.4901 17.0989C20.2866 17.3286 20.0263 17.4939 19.7297 17.5858C19.8211 17.8133 19.8675 18.0588 19.8671 18.3038C19.8658 19.1888 19.2563 20.0844 18.0939 20.0844H17.6708C17.7351 20.2695 17.7679 20.4637 17.7675 20.6575C17.7671 21.5024 17.1195 22.4006 15.9203 22.4006L8.8529 22.3962C8.6206 22.3962 8.3826 22.3918 8.1415 22.3791V23.1583C8.1415 23.5578 8.4666 23.8833 8.8664 23.8833H31.1661C31.566 23.8833 31.891 23.5582 31.891 23.1583V0.857815C31.891 0.458415 31.566 0.132812 31.1661 0.132812L31.1674 0.133312Z" fill="#A0A8B6" stroke="#A0A8B6" stroke-width="0.875011"/>
</g>
</svg>
