<svg width="37" height="37" viewBox="0 0 37 37" fill="none" xmlns="http://www.w3.org/2000/svg">
<path d="M26.2588 6.93395L22.9596 1.39115C22.7809 1.09125 22.449 0.90625 22.0887 0.90625H15.4909C15.1298 0.90625 14.7968 1.09195 14.6184 1.39115L11.3204 6.93435L11.3199 6.93535C11.1434 7.23105 11.1434 7.59275 11.3199 7.88845L11.3204 7.88945L14.6184 13.4328C14.7967 13.732 15.1298 13.9175 15.4909 13.9175H22.0887C22.4488 13.9175 22.7807 13.7324 22.9596 13.4327M26.2588 6.93395C26.2589 6.93395 26.2588 6.93385 26.2588 6.93395ZM26.2588 6.93395C26.4347 7.23025 26.4348 7.59335 26.2589 7.88965M26.2589 7.88965C26.2589 7.88975 26.259 7.88965 26.2589 7.88965ZM26.2589 7.88965L22.9596 13.4327M22.9596 13.4327C22.9595 13.4328 22.9597 13.4326 22.9596 13.4327ZM15.8631 11.6395L16.0731 11.9921H16.4962H21.0837H21.5068L21.7168 11.6394L24.026 7.75915L24.2326 7.41185L24.026 7.06465L21.7168 3.18435L21.5068 2.83165H21.0837H16.4962H16.0731L15.8631 3.18415L13.5523 7.06445L13.3454 7.41185L13.5523 7.75925L15.8631 11.6395Z" stroke="#A0A8B6" stroke-width="1.4"/>
<path d="M21.2257 13.4304L24.5254 18.9724C24.7043 19.2733 25.0358 19.458 25.3958 19.458H31.9938C32.3545 19.458 32.6874 19.2723 32.8659 18.972L36.1642 13.4299L36.1647 13.429C36.3413 13.1333 36.3413 12.77 36.1647 12.4743L36.1642 12.4734L32.8658 6.93091C32.6873 6.63061 32.3545 6.44531 31.9938 6.44531H25.3958C25.0358 6.44531 24.7041 6.63051 24.5252 6.93141L21.2255 12.4732M21.2257 13.4304C21.2257 13.4303 21.2258 13.4304 21.2257 13.4304ZM21.2257 13.4304C21.0499 13.1341 21.0498 12.7695 21.2255 12.4732M21.2255 12.4732C21.2256 12.4731 21.2255 12.4733 21.2255 12.4732ZM25.768 17.1783L25.978 17.5311H26.4012H30.9887H31.4117L31.6217 17.1785L33.9325 13.2982L34.1395 12.9507L33.9324 12.6033L31.6217 8.72461L31.4117 8.37211H30.9887H26.4012H25.9781L25.7681 8.72481L23.459 12.6035L23.2522 12.9507L23.4589 13.2981L25.768 17.1783Z" stroke="#A0A8B6" stroke-width="1.4"/>
<path d="M1.42982 13.4299L1.4293 13.429C1.25273 13.1333 1.25273 12.77 1.4293 12.4743L1.42982 12.4734L4.72804 6.93121C4.90669 6.63061 5.23992 6.44531 5.59867 6.44531H12.1981C12.5581 6.44531 12.8897 6.62991 13.0686 6.93091L16.3682 12.4729C16.5443 12.7693 16.5443 13.134 16.3682 13.4304L13.0689 18.9719C12.89 19.2728 12.5581 19.458 12.1981 19.458H5.59867C5.23992 19.458 4.9069 19.273 4.72825 18.9724L1.42982 13.4299ZM5.97075 17.1783L6.18075 17.5311H6.60387H11.193H11.6163L11.8262 17.1783L14.1353 13.2981L14.3421 12.9507L14.1353 12.6035L11.8261 8.72481L11.6162 8.37211H11.193H6.60387H6.18075L5.97085 8.72481L3.66169 12.6035L3.45492 12.9507L3.66158 13.2981L5.97075 17.1783Z" stroke="#A0A8B6" stroke-width="1.4"/>
<path d="M14.6184 23.563L11.3204 29.1062L11.3199 29.1072C11.1434 29.4029 11.1434 29.7646 11.3199 30.0603L11.3204 30.0613L14.6185 35.6048M14.6184 23.563C14.6184 23.5629 14.6183 23.5631 14.6184 23.563ZM14.6184 23.563C14.7968 23.2639 15.1299 23.0781 15.4909 23.0781H22.0887C22.4489 23.0781 22.7807 23.2631 22.9595 23.5629L26.2588 29.1058M26.2588 29.1058C26.2589 29.1059 26.2588 29.1057 26.2588 29.1058ZM26.2588 29.1058C26.4347 29.4021 26.4348 29.7652 26.2589 30.0616L22.9596 35.6045C22.7809 35.9044 22.449 36.0894 22.0887 36.0894H15.4909C15.1299 36.0894 14.7969 35.9039 14.6185 35.6048M14.6185 35.6048C14.6184 35.6047 14.6185 35.6049 14.6185 35.6048ZM16.4962 25.0036H16.0731L15.8631 25.3561L13.5523 29.2364L13.3454 29.5838L13.5523 29.9312L15.8631 33.8115L16.0731 34.1641H16.4962H21.0837H21.5068L21.7168 33.8113L24.026 29.931L24.2326 29.5838L24.026 29.2366L21.7168 25.3563L21.5068 25.0036H21.0837H16.4962Z" stroke="#A0A8B6" stroke-width="1.4"/>
<path d="M21.2257 24.5163L24.5254 30.0583C24.7043 30.3593 25.0358 30.5441 25.3958 30.5441H31.9937C32.3545 30.5441 32.6874 30.3584 32.8659 30.0581L36.1642 24.5158L36.1647 24.5149C36.3412 24.2192 36.3407 23.8551 36.1642 23.5594L32.8658 18.0168C32.6873 17.7165 32.3545 17.5312 31.9937 17.5312H25.3958C25.0358 17.5312 24.7041 17.7164 24.5252 18.0173L21.2256 23.5591M21.2257 24.5163C21.2257 24.5162 21.2257 24.5164 21.2257 24.5163ZM21.2257 24.5163C21.0499 24.22 21.0498 23.8554 21.2256 23.5591M21.2256 23.5591C21.2257 23.5591 21.2256 23.5592 21.2256 23.5591ZM26.4011 19.4582H25.978L25.768 19.811L23.4589 23.6912L23.2522 24.0386L23.459 24.3857L25.7681 28.2645L25.9781 28.6171H26.4011H30.9886H31.4117L31.6217 28.2646L33.9324 24.3859L34.1395 24.0386L33.9325 23.691L31.6217 19.8107L31.4117 19.4582H30.9886H26.4011Z" stroke="#A0A8B6" stroke-width="1.4"/>
<path d="M1.4293 23.5602L4.72804 18.0173C4.90669 17.7167 5.23992 17.5312 5.59867 17.5312H12.1981C12.5581 17.5312 12.8897 17.7159 13.0686 18.0168L16.3682 23.5589C16.5443 23.8553 16.5443 24.2199 16.3682 24.5163L13.0689 30.058C12.89 30.359 12.5581 30.5441 12.1981 30.5441H5.59867C5.23992 30.5441 4.9069 30.3589 4.72825 30.0583L1.42982 24.5158L1.4293 24.5149C1.25273 24.2192 1.25273 23.8559 1.4293 23.5602ZM6.60387 19.4582H6.18075L5.97075 19.811L3.66158 23.6912L3.45492 24.0386L3.66169 24.3857L5.97085 28.2645L6.18075 28.6171H6.60387H11.193H11.6162L11.8261 28.2645L14.1353 24.3857L14.3421 24.0386L14.1353 23.6912L11.8262 19.811L11.6163 19.4582H11.193H6.60387Z" stroke="#A0A8B6" stroke-width="1.4"/>
</svg>
