<svg width="36" height="29" viewBox="0 0 36 29" fill="none" xmlns="http://www.w3.org/2000/svg">
<path d="M18.2861 1.64717L34.5331 9.97897C34.8433 10.1387 34.962 10.5185 34.806 10.8192C34.6951 11.0337 34.4748 11.1606 34.2476 11.1606C34.1557 11.1606 34.0562 11.139 33.957 11.0904C33.9559 11.0899 33.9549 11.0894 33.9539 11.0889L32.4494 10.318L31.5394 9.85168V10.8742V26.7863C31.5394 27.1329 31.261 27.4113 30.9144 27.4113H22.1649C21.8183 27.4113 21.5399 27.1329 21.5399 26.7863V22.2032C21.5399 20.25 19.9516 18.6617 17.9984 18.6617C16.0452 18.6617 14.4569 20.25 14.4569 22.2032V26.7863C14.4569 27.1329 14.1785 27.4113 13.8319 27.4113H5.08243C4.73583 27.4113 4.45743 27.1329 4.45743 26.7863V10.8742V9.85168L3.54743 10.318L2.03573 11.0926C1.72923 11.2494 1.35463 11.1301 1.19323 10.8207C1.03733 10.5143 1.15703 10.1404 1.46633 9.97927C1.46663 9.97917 1.46693 9.97897 1.46733 9.97877L17.7156 1.64717C17.8944 1.55537 18.1073 1.55537 18.2861 1.64717Z" fill="#A0A8B6" stroke="#A0A8B6" stroke-width="1.24994"/>
</svg>
