<svg width="36" height="26" viewBox="0 0 36 26" fill="none" xmlns="http://www.w3.org/2000/svg">
<mask id="mask0_219_49" style="mask-type:luminance" maskUnits="userSpaceOnUse" x="0" y="0" width="36" height="26">
<path d="M25.0747 3.05871C25.0731 1.44511 23.7657 0.137713 22.1538 0.132812H3.42838C1.81478 0.137812 0.509078 1.44521 0.507378 3.05871V4.55971L25.0747 4.55811V3.05871ZM22.1405 3.01071L3.42818 3.00901C3.24618 3.00901 3.09718 2.86171 3.09718 2.67801C3.09718 2.49601 3.24618 2.34711 3.42818 2.34711H22.1405C22.3226 2.34711 22.4715 2.49601 22.4715 2.67801C22.4715 2.86171 22.3226 3.00901 22.1405 3.00901V3.01071ZM4.16957 10.923H6.90518C7.19148 10.923 7.42158 10.6913 7.42158 10.4066V7.67441C7.41988 7.38971 7.18988 7.15971 6.90518 7.15801H4.16957C3.88657 7.15971 3.65828 7.39131 3.65828 7.67441V10.4066C3.65658 10.5423 3.70958 10.6747 3.80558 10.7707C3.90148 10.8684 4.03227 10.923 4.16957 10.923ZM4.53208 8.27511C4.53208 8.09141 4.67938 7.94411 4.86308 7.94411C5.04508 7.94411 5.19398 8.09141 5.19398 8.27511V8.63751L5.44058 8.55811V8.55651C5.50678 8.54821 5.57298 8.55811 5.63418 8.58291L5.88078 8.66241V8.29991L5.88248 8.30161C5.88248 8.11791 6.02978 7.97061 6.21348 7.97061C6.39548 7.97061 6.54448 8.11791 6.54448 8.30161V9.11421V9.11251C6.54448 9.21841 6.49318 9.31771 6.40708 9.37731C6.35078 9.42031 6.28298 9.44521 6.21348 9.44351C6.18038 9.45011 6.14728 9.45011 6.11578 9.44351L5.53328 9.26311L4.95568 9.44351C4.85478 9.47501 4.74548 9.45671 4.65948 9.39551C4.57508 9.33431 4.52708 9.23501 4.52708 9.13071L4.53208 8.27511ZM3.73767 13.773H14.1869V17.0034H3.73767V13.773ZM18.5396 12.5996H25.075V5.22031H0.484375V17.1358C0.486075 17.9152 0.797176 18.66 1.34988 19.2094C1.90268 19.7572 2.65068 20.0633 3.42848 20.0584H15.8206V15.3185C15.8206 13.8158 17.0369 12.5996 18.5396 12.5996ZM14.5678 6.98101H22.2335C22.4155 6.98101 22.5645 7.13001 22.5645 7.31201C22.5645 7.49571 22.4155 7.64301 22.2335 7.64301H14.5843C14.4022 7.64301 14.2533 7.49571 14.2533 7.31201C14.2533 7.13001 14.4022 6.98101 14.5843 6.98101H14.5678ZM10.1062 6.98101H11.9895C12.1732 6.98101 12.3205 7.13001 12.3205 7.31201C12.3205 7.49571 12.1732 7.64301 11.9895 7.64301H10.1227C9.94068 7.64301 9.79177 7.49571 9.79177 7.31201C9.79177 7.13001 9.94068 6.98101 10.1227 6.98101H10.1062ZM10.1062 8.71041L22.2335 8.71211C22.4155 8.71211 22.5645 8.85941 22.5645 9.04311C22.5645 9.22511 22.4155 9.37411 22.2335 9.37411H10.1227C9.94068 9.37411 9.79168 9.22511 9.79168 9.04311C9.79168 8.85941 9.94068 8.71211 10.1227 8.71211L10.1062 8.71041ZM2.98648 7.67441C2.98648 7.02571 3.51118 6.49781 4.16148 6.49621H6.89708C7.54748 6.49781 8.07378 7.02411 8.07538 7.67441V10.4067C8.07368 11.0554 7.54748 11.5817 6.89708 11.585H4.16148C3.51108 11.5817 2.98648 11.0554 2.98648 10.4067V7.67441ZM14.8491 17.3344C14.8474 17.5164 14.7001 17.6637 14.5181 17.6653H3.42828C3.24628 17.6637 3.09897 17.5164 3.09727 17.3344V13.4387C3.09727 13.255 3.24628 13.1077 3.42828 13.1077H14.5181C14.7018 13.1077 14.8491 13.255 14.8491 13.4387V17.3344ZM10.1227 11.0985C9.94068 11.0985 9.79168 10.9512 9.79168 10.7675C9.79168 10.5855 9.94068 10.4365 10.1227 10.4365H16.6234C16.8071 10.4365 16.9544 10.5855 16.9544 10.7675C16.9544 10.9512 16.8071 11.0985 16.6234 11.0985H10.1227ZM30.8207 18.0838H34.0247L35.1368 19.6941V19.6957C35.2145 19.8149 35.2807 19.939 35.3354 20.0714H34.1041C32.4359 20.0582 31.0508 19.2059 30.8207 18.0855V18.0838ZM23.4329 23.4953C23.4329 24.4518 22.857 25.3124 21.9733 25.6781C21.0895 26.0422 20.0734 25.8386 19.3998 25.1617C18.7246 24.4848 18.5244 23.4671 18.8934 22.585C19.2608 21.703 20.1247 21.1303 21.0813 21.1336C22.3804 21.1419 23.4312 22.1961 23.4329 23.4953ZM23.9013 14.9161H21.164C21.025 14.9128 20.891 14.9657 20.7917 15.0634C20.694 15.1594 20.6377 15.2934 20.6394 15.4324V18.1647C20.6394 18.4477 20.8678 18.6777 21.1508 18.6811H23.888C24.171 18.6778 24.3994 18.4477 24.3994 18.1647V15.4324C24.4027 15.1528 24.1793 14.9228 23.9013 14.9161ZM23.5438 16.8573C23.5421 16.9632 23.4908 17.0609 23.4064 17.1221C23.3502 17.1651 23.2823 17.1883 23.2128 17.1883C23.178 17.1933 23.1449 17.1933 23.1102 17.1883L22.5326 17.0079L21.9633 17.1718C21.864 17.2015 21.7564 17.185 21.672 17.1221C21.5876 17.0609 21.5363 16.9632 21.5347 16.8573V16.0464C21.5347 15.8627 21.6836 15.7154 21.8657 15.7154C22.0494 15.7154 22.1966 15.8627 22.1966 16.0464V16.4088L22.4482 16.3294V16.3277C22.5111 16.3062 22.5806 16.3062 22.6435 16.3277L22.895 16.4072V16.0447V16.0464C22.895 15.8627 23.0423 15.7154 23.226 15.7154C23.4081 15.7154 23.557 15.8627 23.557 16.0464L23.5438 16.8573ZM35.4724 21.8222C35.4542 22.365 35.2225 22.8797 34.827 23.2521C34.923 23.3464 34.9528 23.4887 34.9015 23.6128C34.8502 23.7353 34.7277 23.8147 34.5937 23.8131H34.4431C34.4497 23.7022 34.4497 23.593 34.4431 23.4821C34.41 22.0291 33.3492 20.8061 31.916 20.5694C30.4828 20.3311 29.0828 21.147 28.583 22.5106V15.6444H31.2573C31.9326 15.6427 32.5664 15.9737 32.952 16.5264L33.5693 17.4085L30.4547 17.4101C30.271 17.4101 30.1237 17.5574 30.1237 17.7411C30.1237 19.3828 31.911 20.72 34.0955 20.72H35.4807C35.4856 20.7862 35.4856 20.8524 35.4807 20.9186L35.4724 21.8222ZM33.7993 23.4821C33.7993 24.437 33.2234 25.2976 32.3413 25.6633C31.4592 26.029 30.4447 25.8271 29.7695 25.1519C29.0944 24.4767 28.8908 23.4606 29.2565 22.5785C29.6223 21.6965 30.4828 21.1205 31.4377 21.1205C32.0666 21.1222 32.669 21.3737 33.1108 21.8189C33.5544 22.2641 33.8009 22.8665 33.7993 23.4953V23.4821ZM18.539 13.2613C17.402 13.2613 16.4819 14.1814 16.4819 15.3184V21.7695C16.4869 22.2825 16.6855 22.774 17.038 23.1464H16.8129C16.6308 23.1464 16.4819 23.2953 16.4819 23.4774C16.4819 23.661 16.6308 23.8083 16.8129 23.8083H18.0656C18.059 23.6991 18.059 23.5882 18.0656 23.4774C18.0656 21.8075 19.4194 20.4555 21.0892 20.4555C22.759 20.4555 24.1127 21.8075 24.1127 23.4774V23.8083H27.9207V13.8175C27.5434 13.4601 27.0453 13.2615 26.5256 13.2615L18.539 13.2613ZM25.0744 18.1647C25.0744 18.8134 24.5498 19.3397 23.9011 19.343H21.1638C20.5151 19.3397 19.9905 18.8134 19.9905 18.1647V15.4325C19.9905 14.7837 20.5151 14.2558 21.1638 14.2542H23.9011C24.5498 14.2558 25.0744 14.7837 25.0744 15.4325V18.1647Z" fill="white"/>
</mask>
<g mask="url(#mask0_219_49)">
<path d="M25.0747 3.05871C25.0731 1.44511 23.7657 0.137713 22.1538 0.132812H3.42838C1.81478 0.137812 0.509078 1.44521 0.507378 3.05871V4.55971L25.0747 4.55811V3.05871ZM22.1405 3.01071L3.42818 3.00901C3.24618 3.00901 3.09718 2.86171 3.09718 2.67801C3.09718 2.49601 3.24618 2.34711 3.42818 2.34711H22.1405C22.3226 2.34711 22.4715 2.49601 22.4715 2.67801C22.4715 2.86171 22.3226 3.00901 22.1405 3.00901V3.01071ZM4.16957 10.923H6.90518C7.19148 10.923 7.42158 10.6913 7.42158 10.4066V7.67441C7.41988 7.38971 7.18988 7.15971 6.90518 7.15801H4.16957C3.88657 7.15971 3.65828 7.39131 3.65828 7.67441V10.4066C3.65658 10.5423 3.70958 10.6747 3.80558 10.7707C3.90148 10.8684 4.03227 10.923 4.16957 10.923ZM4.53208 8.27511C4.53208 8.09141 4.67938 7.94411 4.86308 7.94411C5.04508 7.94411 5.19398 8.09141 5.19398 8.27511V8.63751L5.44058 8.55811V8.55651C5.50678 8.54821 5.57298 8.55811 5.63418 8.58291L5.88078 8.66241V8.29991L5.88248 8.30161C5.88248 8.11791 6.02978 7.97061 6.21348 7.97061C6.39548 7.97061 6.54448 8.11791 6.54448 8.30161V9.11421V9.11251C6.54448 9.21841 6.49318 9.31771 6.40708 9.37731C6.35078 9.42031 6.28298 9.44521 6.21348 9.44351C6.18038 9.45011 6.14728 9.45011 6.11578 9.44351L5.53328 9.26311L4.95568 9.44351C4.85478 9.47501 4.74548 9.45671 4.65948 9.39551C4.57508 9.33431 4.52708 9.23501 4.52708 9.13071L4.53208 8.27511ZM3.73767 13.773H14.1869V17.0034H3.73767V13.773ZM18.5396 12.5996H25.075V5.22031H0.484375V17.1358C0.486075 17.9152 0.797176 18.66 1.34988 19.2094C1.90268 19.7572 2.65068 20.0633 3.42848 20.0584H15.8206V15.3185C15.8206 13.8158 17.0369 12.5996 18.5396 12.5996ZM14.5678 6.98101H22.2335C22.4155 6.98101 22.5645 7.13001 22.5645 7.31201C22.5645 7.49571 22.4155 7.64301 22.2335 7.64301H14.5843C14.4022 7.64301 14.2533 7.49571 14.2533 7.31201C14.2533 7.13001 14.4022 6.98101 14.5843 6.98101H14.5678ZM10.1062 6.98101H11.9895C12.1732 6.98101 12.3205 7.13001 12.3205 7.31201C12.3205 7.49571 12.1732 7.64301 11.9895 7.64301H10.1227C9.94068 7.64301 9.79177 7.49571 9.79177 7.31201C9.79177 7.13001 9.94068 6.98101 10.1227 6.98101H10.1062ZM10.1062 8.71041L22.2335 8.71211C22.4155 8.71211 22.5645 8.85941 22.5645 9.04311C22.5645 9.22511 22.4155 9.37411 22.2335 9.37411H10.1227C9.94068 9.37411 9.79168 9.22511 9.79168 9.04311C9.79168 8.85941 9.94068 8.71211 10.1227 8.71211L10.1062 8.71041ZM2.98648 7.67441C2.98648 7.02571 3.51118 6.49781 4.16148 6.49621H6.89708C7.54748 6.49781 8.07378 7.02411 8.07538 7.67441V10.4067C8.07368 11.0554 7.54748 11.5817 6.89708 11.585H4.16148C3.51108 11.5817 2.98648 11.0554 2.98648 10.4067V7.67441ZM14.8491 17.3344C14.8474 17.5164 14.7001 17.6637 14.5181 17.6653H3.42828C3.24628 17.6637 3.09897 17.5164 3.09727 17.3344V13.4387C3.09727 13.255 3.24628 13.1077 3.42828 13.1077H14.5181C14.7018 13.1077 14.8491 13.255 14.8491 13.4387V17.3344ZM10.1227 11.0985C9.94068 11.0985 9.79168 10.9512 9.79168 10.7675C9.79168 10.5855 9.94068 10.4365 10.1227 10.4365H16.6234C16.8071 10.4365 16.9544 10.5855 16.9544 10.7675C16.9544 10.9512 16.8071 11.0985 16.6234 11.0985H10.1227ZM30.8207 18.0838H34.0247L35.1368 19.6941V19.6957C35.2145 19.8149 35.2807 19.939 35.3354 20.0714H34.1041C32.4359 20.0582 31.0508 19.2059 30.8207 18.0855V18.0838ZM23.4329 23.4953C23.4329 24.4518 22.857 25.3124 21.9733 25.6781C21.0895 26.0422 20.0734 25.8386 19.3998 25.1617C18.7246 24.4848 18.5244 23.4671 18.8934 22.585C19.2608 21.703 20.1247 21.1303 21.0813 21.1336C22.3804 21.1419 23.4312 22.1961 23.4329 23.4953ZM23.9013 14.9161H21.164C21.025 14.9128 20.891 14.9657 20.7917 15.0634C20.694 15.1594 20.6377 15.2934 20.6394 15.4324V18.1647C20.6394 18.4477 20.8678 18.6777 21.1508 18.6811H23.888C24.171 18.6778 24.3994 18.4477 24.3994 18.1647V15.4324C24.4027 15.1528 24.1793 14.9228 23.9013 14.9161ZM23.5438 16.8573C23.5421 16.9632 23.4908 17.0609 23.4064 17.1221C23.3502 17.1651 23.2823 17.1883 23.2128 17.1883C23.178 17.1933 23.1449 17.1933 23.1102 17.1883L22.5326 17.0079L21.9633 17.1718C21.864 17.2015 21.7564 17.185 21.672 17.1221C21.5876 17.0609 21.5363 16.9632 21.5347 16.8573V16.0464C21.5347 15.8627 21.6836 15.7154 21.8657 15.7154C22.0494 15.7154 22.1966 15.8627 22.1966 16.0464V16.4088L22.4482 16.3294V16.3277C22.5111 16.3062 22.5806 16.3062 22.6435 16.3277L22.895 16.4072V16.0447V16.0464C22.895 15.8627 23.0423 15.7154 23.226 15.7154C23.4081 15.7154 23.557 15.8627 23.557 16.0464L23.5438 16.8573ZM35.4724 21.8222C35.4542 22.365 35.2225 22.8797 34.827 23.2521C34.923 23.3464 34.9528 23.4887 34.9015 23.6128C34.8502 23.7353 34.7277 23.8147 34.5937 23.8131H34.4431C34.4497 23.7022 34.4497 23.593 34.4431 23.4821C34.41 22.0291 33.3492 20.8061 31.916 20.5694C30.4828 20.3311 29.0828 21.147 28.583 22.5106V15.6444H31.2573C31.9326 15.6427 32.5664 15.9737 32.952 16.5264L33.5693 17.4085L30.4547 17.4101C30.271 17.4101 30.1237 17.5574 30.1237 17.7411C30.1237 19.3828 31.911 20.72 34.0955 20.72H35.4807C35.4856 20.7862 35.4856 20.8524 35.4807 20.9186L35.4724 21.8222ZM33.7993 23.4821C33.7993 24.437 33.2234 25.2976 32.3413 25.6633C31.4592 26.029 30.4447 25.8271 29.7695 25.1519C29.0944 24.4767 28.8908 23.4606 29.2565 22.5785C29.6223 21.6965 30.4828 21.1205 31.4377 21.1205C32.0666 21.1222 32.669 21.3737 33.1108 21.8189C33.5544 22.2641 33.8009 22.8665 33.7993 23.4953V23.4821ZM18.539 13.2613C17.402 13.2613 16.4819 14.1814 16.4819 15.3184V21.7695C16.4869 22.2825 16.6855 22.774 17.038 23.1464H16.8129C16.6308 23.1464 16.4819 23.2953 16.4819 23.4774C16.4819 23.661 16.6308 23.8083 16.8129 23.8083H18.0656C18.059 23.6991 18.059 23.5882 18.0656 23.4774C18.0656 21.8075 19.4194 20.4555 21.0892 20.4555C22.759 20.4555 24.1127 21.8075 24.1127 23.4774V23.8083H27.9207V13.8175C27.5434 13.4601 27.0453 13.2615 26.5256 13.2615L18.539 13.2613ZM25.0744 18.1647C25.0744 18.8134 24.5498 19.3397 23.9011 19.343H21.1638C20.5151 19.3397 19.9905 18.8134 19.9905 18.1647V15.4325C19.9905 14.7837 20.5151 14.2558 21.1638 14.2542H23.9011C24.5498 14.2558 25.0744 14.7837 25.0744 15.4325V18.1647Z" fill="#A0A8B6" stroke="#A0A8B6" stroke-width="0.847324"/>
</g>
</svg>
