<svg width="36" height="35" viewBox="0 0 36 35" fill="none" xmlns="http://www.w3.org/2000/svg">
<mask id="mask0_219_64" style="mask-type:luminance" maskUnits="userSpaceOnUse" x="0" y="0" width="36" height="35">
<path d="M5.8347 16.775L0.754 13.3879C0.6764 13.3368 0.6126 13.2673 0.5682 13.1855C0.5239 13.1038 0.5005 13.0124 0.5 12.9194V1.06455C0.5003 0.950753 0.535 0.839853 0.5995 0.746153C0.6639 0.652453 0.7552 0.580453 0.8613 0.539553C0.9683 0.497253 1.0856 0.488653 1.1976 0.514853C1.3095 0.541053 1.4108 0.600853 1.4879 0.686253L11.0847 11.4121C11.1848 11.5171 11.2406 11.6566 11.2406 11.8016C11.2406 11.9467 11.1848 12.0862 11.0847 12.1912L6.5685 16.7073C6.5131 16.7624 6.4469 16.8054 6.374 16.8336C6.3012 16.8618 6.2232 16.8745 6.1452 16.871C6.0341 16.8731 5.9252 16.8394 5.8347 16.775ZM13.2016 8.40325C13.3309 8.40265 13.4564 8.44655 13.5573 8.52745L14.6129 9.37415L15.6742 8.52745C15.7743 8.44725 15.8988 8.40355 16.027 8.40355C16.1553 8.40355 16.2797 8.44725 16.3798 8.52745L16.871 8.92255V3.88705H12.3548V8.92255L12.8516 8.52745C12.9509 8.44775 13.0743 8.40395 13.2016 8.40325ZM34.9355 27.0323H32.6774C32.5277 27.0323 32.3841 27.0918 32.2782 27.1976C32.1724 27.3035 32.1129 27.4471 32.1129 27.5968V33.242C32.1129 33.3917 32.1724 33.5353 32.2782 33.6411C32.3841 33.747 32.5277 33.8065 32.6774 33.8065H34.9355C35.0852 33.8065 35.2288 33.747 35.3347 33.6411C35.4405 33.5353 35.5 33.3917 35.5 33.242V27.5968C35.5 27.4471 35.4405 27.3035 35.3347 27.1976C35.2288 27.0918 35.0852 27.0323 34.9355 27.0323ZM27.5968 27.642L22.6516 28.0541C22.459 28.0787 22.2819 28.1724 22.1531 28.3177C22.0244 28.4631 21.9528 28.6502 21.9516 28.8444C21.9506 29.0154 22.0051 29.1821 22.1069 29.3195C22.2086 29.4569 22.3523 29.5576 22.5161 29.6065L26.0331 30.4194C26.1671 30.4607 26.2809 30.5505 26.3524 30.6712C26.4238 30.7919 26.4478 30.9349 26.4196 31.0722C26.3914 31.2096 26.3131 31.3316 26.1999 31.4144C26.0867 31.4972 25.9467 31.5349 25.8073 31.5202L15.3806 29.6968C15.2196 29.6639 15.0533 29.6666 14.8934 29.7046C14.7335 29.7426 14.5838 29.8151 14.4548 29.917C14.3279 30.0186 14.2255 30.1475 14.1551 30.294C14.0848 30.4406 14.0483 30.6012 14.0484 30.7637C14.0542 31.0135 14.1427 31.2543 14.3 31.4484C14.4573 31.6425 14.6746 31.7789 14.9177 31.8363L25.7452 34.0944C26.5729 34.2668 27.4305 34.2299 28.2403 33.9871L31.5484 32.9936V28.0258L28.675 27.6646C28.3268 27.6203 27.9748 27.6128 27.625 27.642H27.5968ZM25.9032 26.4678H3.3226C3.1729 26.4678 3.0293 26.4083 2.9234 26.3024C2.8175 26.1966 2.7581 26.053 2.7581 25.9033V15.4033L5.5185 17.2436C5.6642 17.3388 5.8308 17.3969 6.004 17.4129C6.7575 19.3697 7.9762 21.1135 9.5548 22.4936L10.9944 23.7525C11.2946 24.0503 11.7004 24.2174 12.1234 24.2174C12.5463 24.2174 12.9521 24.0503 13.2524 23.7525C13.3659 23.642 13.4611 23.5144 13.5347 23.3742C13.8446 23.6225 14.2342 23.7497 14.631 23.732C15.0277 23.7143 15.4045 23.5531 15.6911 23.2783C15.8488 23.1167 15.9718 22.9246 16.0524 22.7137C16.2006 22.7591 16.3547 22.7819 16.5097 22.7815C16.7594 22.7804 17.0055 22.7212 17.2284 22.6085C17.4514 22.4958 17.645 22.3328 17.794 22.1323C17.9429 21.9318 18.0432 21.6994 18.0868 21.4535C18.1304 21.2075 18.1162 20.9548 18.0452 20.7154C18.257 20.6393 18.4496 20.5179 18.6097 20.3597C18.9075 20.0594 19.0747 19.6536 19.0747 19.2307C19.0747 18.8077 18.9075 18.4019 18.6097 18.1016L17.1589 16.6452L17.3903 16.6847C17.8017 16.7498 18.2225 16.6568 18.5681 16.4243C18.9137 16.1918 19.1585 15.8371 19.2532 15.4315C19.3511 15.0241 19.2944 14.5949 19.0942 14.2268C18.894 13.8588 18.5645 13.578 18.1694 13.4387L11.7508 11.5194C11.7108 11.3407 11.6252 11.1754 11.5024 11.0396L5.1065 3.88705H11.2258V10.0968C11.2261 10.2032 11.2565 10.3074 11.3134 10.3973C11.3703 10.4871 11.4515 10.5591 11.5476 10.6049C11.6226 10.6433 11.706 10.6627 11.7903 10.6613C11.9177 10.6606 12.041 10.6168 12.1403 10.5371L13.2016 9.69035L14.2629 10.5371C14.363 10.6173 14.4875 10.661 14.6157 10.661C14.744 10.661 14.8684 10.6173 14.9685 10.5371L16.0242 9.69035L17.0855 10.5371C17.1681 10.6027 17.2674 10.6437 17.3722 10.6557C17.4769 10.6677 17.583 10.6501 17.6782 10.6049C17.7743 10.5591 17.8555 10.4871 17.9124 10.3973C17.9693 10.3074 17.9997 10.2032 18 10.0968V3.88705H25.9032C26.0529 3.88705 26.1965 3.94655 26.3024 4.05245C26.4083 4.15825 26.4677 4.30185 26.4677 4.45155V25.9033C26.4677 26.053 26.4083 26.1966 26.3024 26.3024C26.1965 26.4083 26.0529 26.4678 25.9032 26.4678ZM24.2097 23.6452C24.2097 23.4955 24.1502 23.3519 24.0443 23.246C23.9385 23.1402 23.7949 23.0807 23.6452 23.0807H20.2581C20.1083 23.0807 19.9648 23.1402 19.8589 23.246C19.753 23.3519 19.6935 23.4955 19.6935 23.6452C19.6935 23.7949 19.753 23.9385 19.8589 24.0444C19.9648 24.1502 20.1083 24.2097 20.2581 24.2097H23.6452C23.7949 24.2097 23.9385 24.1502 24.0443 24.0444C24.1502 23.9385 24.2097 23.7949 24.2097 23.6452ZM24.2097 21.3871C24.2097 21.2374 24.1502 21.0938 24.0443 20.988C23.9385 20.8821 23.7949 20.8226 23.6452 20.8226H20.2581C20.1083 20.8226 19.9648 20.8821 19.8589 20.988C19.753 21.0938 19.6935 21.2374 19.6935 21.3871C19.6935 21.5369 19.753 21.6804 19.8589 21.7863C19.9648 21.8922 20.1083 21.9516 20.2581 21.9516H23.6452C23.7949 21.9516 23.9385 21.8922 24.0443 21.7863C24.1502 21.6804 24.2097 21.5369 24.2097 21.3871ZM15.6516 15.1775L17.6161 15.5049C17.7403 15.5227 17.8667 15.4939 17.9709 15.424C18.0751 15.3542 18.1498 15.2483 18.1806 15.1266C18.2205 14.9925 18.209 14.8483 18.1485 14.722C18.088 14.5958 17.9828 14.4966 17.8532 14.4436L11.4403 12.6089L7.054 16.9952C7.7423 18.78 8.8543 20.3707 10.2944 21.6299L11.7903 22.917C11.8351 22.9639 11.889 23.0013 11.9487 23.0269C12.0084 23.0524 12.0726 23.0656 12.1375 23.0656C12.2024 23.0656 12.2666 23.0524 12.3263 23.0269C12.386 23.0013 12.4399 22.9639 12.4847 22.917C12.5289 22.8729 12.564 22.8206 12.5879 22.7629C12.6118 22.7053 12.6241 22.6435 12.6241 22.5811C12.6241 22.5187 12.6118 22.4569 12.5879 22.3992C12.564 22.3416 12.5289 22.2893 12.4847 22.2452L11.2258 21.0371C11.1681 20.9852 11.1217 20.9219 11.0895 20.8512C11.0573 20.7805 11.0401 20.704 11.0388 20.6263C11.0376 20.5487 11.0524 20.4716 11.0823 20.3999C11.1122 20.3283 11.1566 20.2635 11.2127 20.2098C11.2688 20.1561 11.3353 20.1145 11.4082 20.0877C11.4811 20.0608 11.5587 20.0493 11.6362 20.0538C11.7138 20.0584 11.7895 20.0788 11.8588 20.114C11.928 20.1491 11.9893 20.1982 12.0387 20.2581L14.2403 22.4654C14.3298 22.5516 14.4492 22.5998 14.5734 22.5998C14.6976 22.5998 14.817 22.5516 14.9065 22.4654C14.9507 22.4213 14.9857 22.369 15.0097 22.3113C15.0336 22.2537 15.0459 22.1919 15.0459 22.1295C15.0459 22.0671 15.0336 22.0053 15.0097 21.9476C14.9857 21.89 14.9507 21.8376 14.9065 21.7936L12.2194 19.0726C12.1664 19.0201 12.1244 18.9577 12.0958 18.8889C12.0671 18.8201 12.0524 18.7463 12.0524 18.6718C12.0524 18.5973 12.0671 18.5235 12.0958 18.4547C12.1244 18.3859 12.1664 18.3235 12.2194 18.271C12.3251 18.1659 12.4682 18.1068 12.6173 18.1068C12.7665 18.1068 12.9096 18.1659 13.0153 18.271L16.1992 21.4605C16.2429 21.5054 16.2951 21.5411 16.3528 21.5655C16.4105 21.5898 16.4725 21.6024 16.5351 21.6024C16.5977 21.6024 16.6597 21.5898 16.7174 21.5655C16.7751 21.5411 16.8273 21.5054 16.871 21.4605C16.9606 21.3706 17.0109 21.2488 17.0109 21.1218C17.0109 20.9948 16.9606 20.873 16.871 20.7831L16.3911 20.3033L13.6984 17.6049C13.6455 17.5524 13.6035 17.49 13.5748 17.4212C13.5462 17.3524 13.5314 17.2786 13.5314 17.2041C13.5314 17.1295 13.5462 17.0558 13.5748 16.987C13.6035 16.9182 13.6455 16.8557 13.6984 16.8033C13.8042 16.6981 13.9472 16.6391 14.0964 16.6391C14.2455 16.6391 14.3886 16.6981 14.4944 16.8033L17.1927 19.5073C17.2822 19.5935 17.4016 19.6417 17.5258 19.6417C17.65 19.6417 17.7694 19.5935 17.8589 19.5073C17.9451 19.4179 17.9933 19.2985 17.9933 19.1742C17.9933 19.05 17.9451 18.9306 17.8589 18.8412L15.1774 16.1258C15.098 16.0417 15.0464 15.9352 15.0295 15.8207C15.0126 15.7063 15.0313 15.5894 15.083 15.4859C15.1348 15.3824 15.2171 15.2973 15.3188 15.2422C15.4205 15.187 15.5367 15.1644 15.6516 15.1775Z" fill="white"/>
</mask>
<g mask="url(#mask0_219_64)">
<path d="M5.8347 16.775L0.754 13.3879C0.6764 13.3368 0.6126 13.2673 0.5682 13.1855C0.5239 13.1038 0.5005 13.0124 0.5 12.9194V1.06455C0.5003 0.950753 0.535 0.839853 0.5995 0.746153C0.6639 0.652453 0.7552 0.580453 0.8613 0.539553C0.9683 0.497253 1.0856 0.488653 1.1976 0.514853C1.3095 0.541053 1.4108 0.600853 1.4879 0.686253L11.0847 11.4121C11.1848 11.5171 11.2406 11.6566 11.2406 11.8016C11.2406 11.9467 11.1848 12.0862 11.0847 12.1912L6.5685 16.7073C6.5131 16.7624 6.4469 16.8054 6.374 16.8336C6.3012 16.8618 6.2232 16.8745 6.1452 16.871C6.0341 16.8731 5.9252 16.8394 5.8347 16.775ZM13.2016 8.40325C13.3309 8.40265 13.4564 8.44655 13.5573 8.52745L14.6129 9.37415L15.6742 8.52745C15.7743 8.44725 15.8988 8.40355 16.027 8.40355C16.1553 8.40355 16.2797 8.44725 16.3798 8.52745L16.871 8.92255V3.88705H12.3548V8.92255L12.8516 8.52745C12.9509 8.44775 13.0743 8.40395 13.2016 8.40325ZM34.9355 27.0323H32.6774C32.5277 27.0323 32.3841 27.0918 32.2782 27.1976C32.1724 27.3035 32.1129 27.4471 32.1129 27.5968V33.242C32.1129 33.3917 32.1724 33.5353 32.2782 33.6411C32.3841 33.747 32.5277 33.8065 32.6774 33.8065H34.9355C35.0852 33.8065 35.2288 33.747 35.3347 33.6411C35.4405 33.5353 35.5 33.3917 35.5 33.242V27.5968C35.5 27.4471 35.4405 27.3035 35.3347 27.1976C35.2288 27.0918 35.0852 27.0323 34.9355 27.0323ZM27.5968 27.642L22.6516 28.0541C22.459 28.0787 22.2819 28.1724 22.1531 28.3177C22.0244 28.4631 21.9528 28.6502 21.9516 28.8444C21.9506 29.0154 22.0051 29.1821 22.1069 29.3195C22.2086 29.4569 22.3523 29.5576 22.5161 29.6065L26.0331 30.4194C26.1671 30.4607 26.2809 30.5505 26.3524 30.6712C26.4238 30.7919 26.4478 30.9349 26.4196 31.0722C26.3914 31.2096 26.3131 31.3316 26.1999 31.4144C26.0867 31.4972 25.9467 31.5349 25.8073 31.5202L15.3806 29.6968C15.2196 29.6639 15.0533 29.6666 14.8934 29.7046C14.7335 29.7426 14.5838 29.8151 14.4548 29.917C14.3279 30.0186 14.2255 30.1475 14.1551 30.294C14.0848 30.4406 14.0483 30.6012 14.0484 30.7637C14.0542 31.0135 14.1427 31.2543 14.3 31.4484C14.4573 31.6425 14.6746 31.7789 14.9177 31.8363L25.7452 34.0944C26.5729 34.2668 27.4305 34.2299 28.2403 33.9871L31.5484 32.9936V28.0258L28.675 27.6646C28.3268 27.6203 27.9748 27.6128 27.625 27.642H27.5968ZM25.9032 26.4678H3.3226C3.1729 26.4678 3.0293 26.4083 2.9234 26.3024C2.8175 26.1966 2.7581 26.053 2.7581 25.9033V15.4033L5.5185 17.2436C5.6642 17.3388 5.8308 17.3969 6.004 17.4129C6.7575 19.3697 7.9762 21.1135 9.5548 22.4936L10.9944 23.7525C11.2946 24.0503 11.7004 24.2174 12.1234 24.2174C12.5463 24.2174 12.9521 24.0503 13.2524 23.7525C13.3659 23.642 13.4611 23.5144 13.5347 23.3742C13.8446 23.6225 14.2342 23.7497 14.631 23.732C15.0277 23.7143 15.4045 23.5531 15.6911 23.2783C15.8488 23.1167 15.9718 22.9246 16.0524 22.7137C16.2006 22.7591 16.3547 22.7819 16.5097 22.7815C16.7594 22.7804 17.0055 22.7212 17.2284 22.6085C17.4514 22.4958 17.645 22.3328 17.794 22.1323C17.9429 21.9318 18.0432 21.6994 18.0868 21.4535C18.1304 21.2075 18.1162 20.9548 18.0452 20.7154C18.257 20.6393 18.4496 20.5179 18.6097 20.3597C18.9075 20.0594 19.0747 19.6536 19.0747 19.2307C19.0747 18.8077 18.9075 18.4019 18.6097 18.1016L17.1589 16.6452L17.3903 16.6847C17.8017 16.7498 18.2225 16.6568 18.5681 16.4243C18.9137 16.1918 19.1585 15.8371 19.2532 15.4315C19.3511 15.0241 19.2944 14.5949 19.0942 14.2268C18.894 13.8588 18.5645 13.578 18.1694 13.4387L11.7508 11.5194C11.7108 11.3407 11.6252 11.1754 11.5024 11.0396L5.1065 3.88705H11.2258V10.0968C11.2261 10.2032 11.2565 10.3074 11.3134 10.3973C11.3703 10.4871 11.4515 10.5591 11.5476 10.6049C11.6226 10.6433 11.706 10.6627 11.7903 10.6613C11.9177 10.6606 12.041 10.6168 12.1403 10.5371L13.2016 9.69035L14.2629 10.5371C14.363 10.6173 14.4875 10.661 14.6157 10.661C14.744 10.661 14.8684 10.6173 14.9685 10.5371L16.0242 9.69035L17.0855 10.5371C17.1681 10.6027 17.2674 10.6437 17.3722 10.6557C17.4769 10.6677 17.583 10.6501 17.6782 10.6049C17.7743 10.5591 17.8555 10.4871 17.9124 10.3973C17.9693 10.3074 17.9997 10.2032 18 10.0968V3.88705H25.9032C26.0529 3.88705 26.1965 3.94655 26.3024 4.05245C26.4083 4.15825 26.4677 4.30185 26.4677 4.45155V25.9033C26.4677 26.053 26.4083 26.1966 26.3024 26.3024C26.1965 26.4083 26.0529 26.4678 25.9032 26.4678ZM24.2097 23.6452C24.2097 23.4955 24.1502 23.3519 24.0443 23.246C23.9385 23.1402 23.7949 23.0807 23.6452 23.0807H20.2581C20.1083 23.0807 19.9648 23.1402 19.8589 23.246C19.753 23.3519 19.6935 23.4955 19.6935 23.6452C19.6935 23.7949 19.753 23.9385 19.8589 24.0444C19.9648 24.1502 20.1083 24.2097 20.2581 24.2097H23.6452C23.7949 24.2097 23.9385 24.1502 24.0443 24.0444C24.1502 23.9385 24.2097 23.7949 24.2097 23.6452ZM24.2097 21.3871C24.2097 21.2374 24.1502 21.0938 24.0443 20.988C23.9385 20.8821 23.7949 20.8226 23.6452 20.8226H20.2581C20.1083 20.8226 19.9648 20.8821 19.8589 20.988C19.753 21.0938 19.6935 21.2374 19.6935 21.3871C19.6935 21.5369 19.753 21.6804 19.8589 21.7863C19.9648 21.8922 20.1083 21.9516 20.2581 21.9516H23.6452C23.7949 21.9516 23.9385 21.8922 24.0443 21.7863C24.1502 21.6804 24.2097 21.5369 24.2097 21.3871ZM15.6516 15.1775L17.6161 15.5049C17.7403 15.5227 17.8667 15.4939 17.9709 15.424C18.0751 15.3542 18.1498 15.2483 18.1806 15.1266C18.2205 14.9925 18.209 14.8483 18.1485 14.722C18.088 14.5958 17.9828 14.4966 17.8532 14.4436L11.4403 12.6089L7.054 16.9952C7.7423 18.78 8.8543 20.3707 10.2944 21.6299L11.7903 22.917C11.8351 22.9639 11.889 23.0013 11.9487 23.0269C12.0084 23.0524 12.0726 23.0656 12.1375 23.0656C12.2024 23.0656 12.2666 23.0524 12.3263 23.0269C12.386 23.0013 12.4399 22.9639 12.4847 22.917C12.5289 22.8729 12.564 22.8206 12.5879 22.7629C12.6118 22.7053 12.6241 22.6435 12.6241 22.5811C12.6241 22.5187 12.6118 22.4569 12.5879 22.3992C12.564 22.3416 12.5289 22.2893 12.4847 22.2452L11.2258 21.0371C11.1681 20.9852 11.1217 20.9219 11.0895 20.8512C11.0573 20.7805 11.0401 20.704 11.0388 20.6263C11.0376 20.5487 11.0524 20.4716 11.0823 20.3999C11.1122 20.3283 11.1566 20.2635 11.2127 20.2098C11.2688 20.1561 11.3353 20.1145 11.4082 20.0877C11.4811 20.0608 11.5587 20.0493 11.6362 20.0538C11.7138 20.0584 11.7895 20.0788 11.8588 20.114C11.928 20.1491 11.9893 20.1982 12.0387 20.2581L14.2403 22.4654C14.3298 22.5516 14.4492 22.5998 14.5734 22.5998C14.6976 22.5998 14.817 22.5516 14.9065 22.4654C14.9507 22.4213 14.9857 22.369 15.0097 22.3113C15.0336 22.2537 15.0459 22.1919 15.0459 22.1295C15.0459 22.0671 15.0336 22.0053 15.0097 21.9476C14.9857 21.89 14.9507 21.8376 14.9065 21.7936L12.2194 19.0726C12.1664 19.0201 12.1244 18.9577 12.0958 18.8889C12.0671 18.8201 12.0524 18.7463 12.0524 18.6718C12.0524 18.5973 12.0671 18.5235 12.0958 18.4547C12.1244 18.3859 12.1664 18.3235 12.2194 18.271C12.3251 18.1659 12.4682 18.1068 12.6173 18.1068C12.7665 18.1068 12.9096 18.1659 13.0153 18.271L16.1992 21.4605C16.2429 21.5054 16.2951 21.5411 16.3528 21.5655C16.4105 21.5898 16.4725 21.6024 16.5351 21.6024C16.5977 21.6024 16.6597 21.5898 16.7174 21.5655C16.7751 21.5411 16.8273 21.5054 16.871 21.4605C16.9606 21.3706 17.0109 21.2488 17.0109 21.1218C17.0109 20.9948 16.9606 20.873 16.871 20.7831L16.3911 20.3033L13.6984 17.6049C13.6455 17.5524 13.6035 17.49 13.5748 17.4212C13.5462 17.3524 13.5314 17.2786 13.5314 17.2041C13.5314 17.1295 13.5462 17.0558 13.5748 16.987C13.6035 16.9182 13.6455 16.8557 13.6984 16.8033C13.8042 16.6981 13.9472 16.6391 14.0964 16.6391C14.2455 16.6391 14.3886 16.6981 14.4944 16.8033L17.1927 19.5073C17.2822 19.5935 17.4016 19.6417 17.5258 19.6417C17.65 19.6417 17.7694 19.5935 17.8589 19.5073C17.9451 19.4179 17.9933 19.2985 17.9933 19.1742C17.9933 19.05 17.9451 18.9306 17.8589 18.8412L15.1774 16.1258C15.098 16.0417 15.0464 15.9352 15.0295 15.8207C15.0126 15.7063 15.0313 15.5894 15.083 15.4859C15.1348 15.3824 15.2171 15.2973 15.3188 15.2422C15.4205 15.187 15.5367 15.1644 15.6516 15.1775Z" fill="#A0A8B6" stroke="#A0A8B6" stroke-width="1.12903"/>
</g>
</svg>
