<svg width="36" height="27" viewBox="0 0 36 27" fill="none" xmlns="http://www.w3.org/2000/svg">
<path d="M33.6745 22.5932V22.7755H33.8568C34.6603 22.7755 35.3151 23.4304 35.3151 24.2339V25.0542C35.3151 25.8577 34.6603 26.5125 33.8568 26.5125H2.13799C1.33449 26.5125 0.679688 25.8577 0.679688 25.0542V24.2339C0.679688 23.4304 1.33449 22.7755 2.13799 22.7755H2.32029V22.5932V8.10099V7.91879H2.13799C1.33449 7.91879 0.679688 7.26389 0.679688 6.46039C0.679688 5.65689 1.33449 5.00209 2.13799 5.00209H2.32029V4.81979V3.58749C2.32029 3.38559 2.48299 3.22289 2.68489 3.22289C2.88679 3.22289 3.04949 3.38559 3.04949 3.58749V4.81979V5.00209H3.23179H5.28069H5.46299V4.81979V3.53649V3.39519L5.32619 3.35989C4.69689 3.19769 4.23069 2.62669 4.23069 1.95049C4.23069 1.14699 4.88559 0.492188 5.68909 0.492188H11.1578C11.9613 0.492188 12.6162 1.14699 12.6162 1.95049C12.6162 2.62669 12.15 3.19769 11.5207 3.35989L11.3839 3.39519V3.53649V4.81979V5.00209H11.5662H14.9167H15.099V4.81979V3.55469V3.40699L14.9544 3.37639C14.2969 3.23709 13.801 2.65019 13.801 1.95049C13.801 1.14699 14.4559 0.492188 15.2594 0.492188H20.7281C21.5316 0.492188 22.1865 1.14699 22.1865 1.95049C22.1865 2.65019 21.6906 3.23709 21.0331 3.37639L20.8885 3.40699V3.55469V4.81979V5.00209H21.0708H24.4906H24.6729V4.81979V3.55469V3.40699L24.5284 3.37639C23.8708 3.23709 23.375 2.65019 23.375 1.95049C23.375 1.14699 24.0298 0.492188 24.8333 0.492188H30.3021C31.1056 0.492188 31.7604 1.14699 31.7604 1.95049C31.7604 2.65019 31.2646 3.23709 30.607 3.37639L30.4625 3.40699V3.55469V4.81979V5.00209H30.6448H32.763H32.9453V4.81979V3.58749C32.9453 3.38559 33.108 3.22289 33.3099 3.22289C33.5118 3.22289 33.6745 3.38559 33.6745 3.58749V4.81979V5.00209H33.8568C34.6603 5.00209 35.3151 5.65689 35.3151 6.46039C35.3151 7.26389 34.6603 7.91879 33.8568 7.91879H33.6745V8.10099V22.5932ZM25.5151 7.91879H25.3328V8.10099V10.6969V10.8792H25.5151H29.6167H29.799V10.6969V8.10099V7.91879H29.6167H25.5151ZM25.5844 3.40519H25.4021V3.58749V4.81979V5.00209H25.5844H29.551H29.7333V4.81979V3.58749V3.40519H29.551H25.5844ZM15.9448 7.91879H15.7625V8.10099V10.6969V10.8792H15.9448H20.0464H20.2287V10.6969V8.10099V7.91879H20.0464H15.9448ZM16.0141 3.40519H15.8318V3.58749V4.81979V5.00209H16.0141H19.9807H20.163V4.81979V3.58749V3.40519H19.9807H16.0141ZM6.37449 7.91879H6.19219V8.10099V10.6969V10.8792H6.37449H10.476H10.6583V10.6969V8.10099V7.91879H10.476H6.37449ZM6.37449 3.40519H6.19219V3.58749V4.81979V5.00209H6.37449H10.476H10.6583V4.81979V3.58749V3.40519H10.476H6.37449ZM3.23179 7.91879H3.04949V8.10099V22.5932V22.7755H3.23179H32.7484H32.9307V22.5932V8.10099V7.91879H32.7484H30.6995H30.5172V8.10099V18.0833C30.5172 19.7144 29.1879 21.0438 27.5568 21.0438C25.9257 21.0438 24.5964 19.7144 24.5964 18.0833V8.10099V7.91879H24.4141H21.1328H20.9505V8.10099V18.0833C20.9505 19.7144 19.6212 21.0438 17.9901 21.0438C16.359 21.0438 15.0297 19.7144 15.0297 18.0833V8.10099V7.91879H14.8474H11.5662H11.3839V8.10099V18.0833C11.3839 19.7144 10.0545 21.0438 8.42339 21.0438C6.79229 21.0438 5.46299 19.7144 5.46299 18.0833V8.10099V7.91879H5.28069H3.23179Z" fill="#A0A8B6" stroke="#A0A8B6" stroke-width="0.364583"/>
</svg>
