<svg width="36" height="25" viewBox="0 0 36 25" fill="none" xmlns="http://www.w3.org/2000/svg">
<path d="M20.5813 17.9141V18.7512L20.2031 17.9141H20.5813Z" fill="#A0A8B6" stroke="#A0A8B6" stroke-width="0.261194"/>
<path d="M16.375 17.1482L18.5113 16.1953L19.8016 19.0505L17.2749 18.1604L16.375 17.1482Z" fill="#A0A8B6" stroke="#A0A8B6" stroke-width="0.261194"/>
<path d="M8.20312 9.52921L14.2761 6.82031L16.0517 10.7493L9.97873 13.4582L8.20312 9.52921Z" fill="#A0A8B6" stroke="#A0A8B6" stroke-width="0.261194"/>
<path d="M19.8289 17.0877L17.8828 12.7812H20.5828V17.0877H19.8289Z" fill="#A0A8B6" stroke="#A0A8B6" stroke-width="0.261194"/>
<path d="M17.2583 0.203125C18.7053 0.203125 20.0397 0.607228 20.5869 0.797428V1.83973C19.8908 1.61723 18.6383 1.29213 17.2583 1.29213C15.8782 1.29213 14.6258 1.61723 13.9297 1.83973V0.797428C14.477 0.607228 15.8113 0.203125 17.2583 0.203125Z" fill="#A0A8B6" stroke="#A0A8B6" stroke-width="0.261194"/>
<path d="M17.2583 2.125C18.7056 2.125 20.0399 2.5291 20.5869 2.7192V6.813H15.1895L13.9297 4.0253V2.7192C14.4769 2.5291 15.8113 2.125 17.2583 2.125Z" fill="#A0A8B6" stroke="#A0A8B6" stroke-width="0.261194"/>
<path d="M14.7325 15.3005C14.2015 14.7034 13.4372 14.361 12.6356 14.361H10.3856L10.3203 14.2166L16.3932 11.5078L18.1687 15.4368L15.7951 16.4955L14.7325 15.3005Z" fill="#A0A8B6" stroke="#A0A8B6" stroke-width="0.261194"/>
<path d="M17.5086 11.9471L15.5625 7.64062H20.5843V11.9471H17.5086Z" fill="#A0A8B6" stroke="#A0A8B6" stroke-width="0.261194"/>
<path d="M32.4611 13.4955L29.0352 15.773L26.1875 11.5449L27.4499 8.8703L28.7591 8C29.2222 8.3458 30.3027 9.2229 31.1077 10.418C31.9119 11.612 32.3158 12.9375 32.4611 13.4955Z" fill="#A0A8B6" stroke="#A0A8B6" stroke-width="0.261194"/>
<path d="M25.8386 2.54579C27.1482 3.15589 28.1833 4.08409 28.5978 4.48729L28.152 5.43169C27.6169 4.93669 26.6217 4.11379 25.3719 3.53149C24.1229 2.94969 22.8504 2.71579 22.125 2.62359L22.5705 1.67969C23.146 1.73779 24.525 1.93379 25.8386 2.54579Z" fill="#A0A8B6" stroke="#A0A8B6" stroke-width="0.261194"/>
<path d="M31.8002 9.9605C31.0333 8.8218 30.0656 7.9689 29.4922 7.5176L30.3649 6.9375C30.8275 7.2825 31.9064 8.1577 32.7132 9.3555C33.5174 10.5495 33.9213 11.8752 34.0666 12.433L33.1934 13.0136C32.9923 12.3149 32.5677 11.1 31.8002 9.9605Z" fill="#A0A8B6" stroke="#A0A8B6" stroke-width="0.261194"/>
<path d="M21.4455 20.8291L21.545 21.3354H20.4958C20.2347 21.3354 20.0234 21.1244 20.0234 20.8669C20.0234 20.6094 20.2347 20.3984 20.4958 20.3984H21.1049C21.2802 20.4802 21.4084 20.6406 21.4455 20.8291Z" fill="#A0A8B6" stroke="#A0A8B6" stroke-width="0.261194"/>
<path d="M21.4219 14.375L23.4816 15.3345L21.4516 19.6356C21.4418 19.6311 21.4319 19.6267 21.4219 19.6224V14.375Z" fill="#A0A8B6" stroke="#A0A8B6" stroke-width="0.261194"/>
<path d="M21.4219 8.70312L25.6772 10.6854L23.8367 14.5847L21.4219 13.4598V8.70312Z" fill="#A0A8B6" stroke="#A0A8B6" stroke-width="0.261194"/>
<path d="M27.7819 6.22146L26.0323 9.92836L21.4219 7.78066V4.11876L21.7545 3.41406C22.3309 3.47266 23.7121 3.66946 25.0227 4.27996C26.3323 4.89006 27.3674 5.81826 27.7819 6.22146Z" fill="#A0A8B6" stroke="#A0A8B6" stroke-width="0.261194"/>
<path d="M13.6797 19.0906C13.6797 18.8336 13.7466 18.6014 13.8473 18.4374C13.9499 18.2702 14.0721 18.1953 14.1788 18.1953C14.2458 18.1953 14.3447 18.2185 14.461 18.2689C14.5752 18.3183 14.6973 18.39 14.8088 18.4777C15.0387 18.6582 15.194 18.8811 15.194 19.0906C15.194 19.3001 15.0387 19.5229 14.8088 19.7035C14.6972 19.7912 14.5752 19.8629 14.461 19.9123C14.3447 19.9627 14.2458 19.9859 14.1788 19.9859C14.0721 19.9859 13.9499 19.911 13.8473 19.7437C13.7466 19.5798 13.6797 19.3475 13.6797 19.0906Z" fill="#A0A8B6" stroke="#A0A8B6" stroke-width="0.261194"/>
<path d="M27.8833 17.5469V21.8085H23.5469V20.4296L27.8833 17.5469Z" fill="#A0A8B6" stroke="#A0A8B6" stroke-width="0.261194"/>
<path d="M22.7121 21.8082H22.4925C22.4904 21.7959 22.4882 21.7837 22.4858 21.7715L22.375 21.2085L22.7121 20.9844V21.8082Z" fill="#A0A8B6" stroke="#A0A8B6" stroke-width="0.261194"/>
<path d="M22.16 20.3478C22.14 20.3044 22.1179 20.2622 22.0938 20.2212L23.2085 17.8594L24.0418 19.0968L22.16 20.3478Z" fill="#A0A8B6" stroke="#A0A8B6" stroke-width="0.261194"/>
<path d="M5.8572 15.8986C6.2504 15.3751 6.8779 15.0625 7.5354 15.0625H12.6352C13.2353 15.0625 13.8073 15.3187 14.2046 15.7655L16.8186 18.7054C16.8508 18.7417 16.8918 18.7691 16.9377 18.7853L19.7739 19.7846C19.7303 19.8135 19.6885 19.8451 19.6487 19.8789M5.8572 15.8986L3.9434 18.4466C3.8986 18.5062 3.8322 18.5461 3.7582 18.5577M5.8572 15.8986L5.9616 15.9771L4.0478 18.5251C3.9826 18.6119 3.8859 18.6699 3.7785 18.6867M5.8572 15.8986L5.9616 15.9771C6.3301 15.4865 6.9187 15.1931 7.5354 15.1931H12.6352C13.1981 15.1931 13.7346 15.4335 14.107 15.8523L16.721 18.7922C16.768 18.845 16.8277 18.885 16.8943 18.9085L19.6487 19.8789M3.7582 18.5577L1.9082 18.8487C1.8782 18.8534 1.8487 18.8594 1.8197 18.8666C1.8514 18.8708 1.8827 18.8763 1.9136 18.883C1.9845 18.8984 2.0531 18.9202 2.1186 18.9478M3.7582 18.5577L3.7785 18.6867ZM3.7582 18.5577L3.7785 18.6867ZM2.1186 18.9478L1.9285 18.9777C1.8941 18.9831 1.8603 18.9905 1.8273 18.9997C2.3216 19.0774 2.7008 19.5036 2.7008 20.0162V20.653C2.7008 21.2205 2.2361 21.6822 1.6648 21.6822H0.565802M2.1186 18.9478C2.5368 19.124 2.8314 19.536 2.8314 20.0162V20.653C2.8314 21.2935 2.3074 21.8128 1.6648 21.8128H0.668001M2.1186 18.9478L3.7785 18.6867ZM0.565802 21.6822L0.521902 21.8598C0.466702 22.083 0.517 22.3147 0.6597 22.4955C0.8025 22.6763 1.017 22.7801 1.2483 22.7801H4.548M0.565802 21.6822V21.8128H0.668001M0.565802 21.6822L0.692602 21.7135L0.668001 21.8128M4.548 22.7801C4.7101 21.8535 5.5248 21.1466 6.503 21.1466C7.5001 21.1466 8.3275 21.8808 8.467 22.8336M4.548 22.7801V22.6495H4.4412M4.548 22.7801L4.4193 22.7576C4.4257 22.7212 4.433 22.6852 4.4412 22.6495M8.467 22.8336H14.7494ZM8.467 22.8336L8.5962 22.8147C8.5907 22.7771 8.5842 22.7399 8.5767 22.703M8.467 22.8336V22.703H8.5767M14.7494 22.8336C14.8889 21.8808 15.7163 21.1466 16.7133 21.1466C17.6916 21.1466 18.5062 21.8535 18.6683 22.7801M14.7494 22.8336V22.703H14.6396M14.7494 22.8336L14.6202 22.8147C14.6257 22.7771 14.6322 22.7399 14.6396 22.703M18.6683 22.7801H21.0649C21.2871 22.7801 21.4955 22.6823 21.6368 22.5119M18.6683 22.7801L18.797 22.7576C18.7906 22.7212 18.7833 22.6852 18.7751 22.6495M18.6683 22.7801V22.6495H18.7751M21.6368 22.5119C21.7207 22.4107 21.7741 22.2913 21.795 22.1656H21.6622M21.6368 22.5119L21.5363 22.4286ZM21.6368 22.5119L21.5363 22.4286ZM21.6622 22.1656C21.6707 22.1235 21.6748 22.0803 21.6742 22.0368L21.8048 22.035H20.498C19.8492 22.0352 19.3213 21.5107 19.3213 20.866C19.3213 20.4835 19.5072 20.1435 19.7939 19.9301L19.6487 19.8789M21.6622 22.1656H20.498C19.7779 22.1658 19.1907 21.5836 19.1907 20.866C19.1907 20.4709 19.3689 20.1171 19.6487 19.8789M21.6622 22.1656C21.6428 22.261 21.6003 22.3513 21.5363 22.4286ZM21.5363 22.4286C21.4199 22.5689 21.2484 22.6495 21.0649 22.6495H18.7751M18.7751 22.6495C18.5599 21.7148 17.7173 21.016 16.7133 21.016C15.6903 21.016 14.8344 21.7415 14.6396 22.703M14.6396 22.703H8.5767ZM8.5767 22.703C8.382 21.7415 7.5261 21.016 6.503 21.016C5.4991 21.016 4.6564 21.7148 4.4412 22.6495M4.4412 22.6495H1.2483C1.0568 22.6495 0.880101 22.5639 0.762201 22.4146M0.762201 22.4146C0.644401 22.2654 0.603203 22.075 0.648703 21.8911L0.668001 21.8128M21.8048 22.0548V22.035C21.8049 22.0416 21.8049 22.0482 21.8048 22.0548ZM5.3475 19.3731C5.5377 19.7282 5.9073 19.9485 6.3113 19.9485H13.0112C13.2316 20.4578 13.6558 20.8185 14.175 20.8185C14.5535 20.8185 15.012 20.6229 15.3733 20.3204C15.7354 20.0172 16.0251 19.5849 16.0251 19.092C16.0251 18.6508 15.7927 18.2582 15.4858 17.9645C15.1932 17.6844 14.82 17.4812 14.4758 17.4022L13.4956 16.0816C13.2903 15.8052 12.9622 15.6406 12.617 15.6406H7.7607C7.3973 15.6406 7.0587 15.8194 6.8554 16.1193L5.4061 18.256C5.1798 18.5896 5.1573 19.0179 5.3475 19.3731Z" fill="#A0A8B6"/>
<path d="M5.8572 15.8986C6.2504 15.3751 6.8779 15.0625 7.5354 15.0625H12.6352C13.2353 15.0625 13.8073 15.3187 14.2046 15.7655L16.8186 18.7054C16.8508 18.7417 16.8918 18.7691 16.9377 18.7853L19.7739 19.7846C19.7303 19.8135 19.6885 19.8451 19.6487 19.8789M5.8572 15.8986L3.9434 18.4466C3.8986 18.5062 3.8322 18.5461 3.7582 18.5577M5.8572 15.8986L5.9616 15.9771M19.6487 19.8789L16.8943 18.9085M19.6487 19.8789L19.7939 19.9301C19.5072 20.1435 19.3213 20.4835 19.3213 20.866C19.3213 21.5107 19.8492 22.0352 20.498 22.035H21.8048M19.6487 19.8789C19.3689 20.1171 19.1907 20.4709 19.1907 20.866C19.1907 21.5836 19.7779 22.1658 20.498 22.1656H21.6622M3.7582 18.5577L1.9082 18.8487C1.8782 18.8534 1.8487 18.8594 1.8197 18.8666C1.8514 18.8708 1.8827 18.8763 1.9136 18.883C1.9845 18.8984 2.0531 18.9202 2.1186 18.9478M3.7582 18.5577L3.7785 18.6867M5.9616 15.9771L4.0478 18.5251C3.9826 18.6119 3.8859 18.6699 3.7785 18.6867M5.9616 15.9771C6.3301 15.4865 6.9187 15.1931 7.5354 15.1931H12.6352C13.1981 15.1931 13.7346 15.4335 14.107 15.8523M3.7785 18.6867L2.1186 18.9478M14.107 15.8523L14.1987 15.7708M14.107 15.8523L16.721 18.7922C16.768 18.845 16.8277 18.885 16.8943 18.9085M16.8943 18.9085L16.9322 18.8009M2.1186 18.9478L1.9285 18.9777C1.8941 18.9831 1.8603 18.9905 1.8273 18.9997C2.3216 19.0774 2.7008 19.5036 2.7008 20.0162V20.653C2.7008 21.2205 2.2361 21.6822 1.6648 21.6822H0.565802M2.1186 18.9478C2.5368 19.124 2.8314 19.536 2.8314 20.0162V20.653C2.8314 21.2935 2.3074 21.8128 1.6648 21.8128H0.668001M0.565802 21.6822L0.521902 21.8598C0.466702 22.083 0.517 22.3147 0.6597 22.4955M0.565802 21.6822V21.8128H0.668001M0.565802 21.6822L0.692602 21.7135L0.668001 21.8128M0.668001 21.8128L0.648703 21.8911C0.603203 22.075 0.644401 22.2654 0.762201 22.4146M0.6597 22.4955C0.8025 22.6763 1.017 22.7801 1.2483 22.7801H4.548M0.6597 22.4955L0.762201 22.4146M4.548 22.7801C4.7101 21.8535 5.5248 21.1466 6.503 21.1466C7.5001 21.1466 8.3275 21.8808 8.467 22.8336M4.548 22.7801V22.6495H4.4412M4.548 22.7801L4.4193 22.7576C4.4257 22.7212 4.433 22.6852 4.4412 22.6495M8.467 22.8336H14.7494M8.467 22.8336L8.5962 22.8147C8.5907 22.7771 8.5842 22.7399 8.5767 22.703M8.467 22.8336V22.703H8.5767M4.4412 22.6495C4.6564 21.7148 5.4991 21.016 6.503 21.016C7.5261 21.016 8.382 21.7415 8.5767 22.703M4.4412 22.6495H1.2483C1.0568 22.6495 0.880101 22.5639 0.762201 22.4146M14.7494 22.8336C14.8889 21.8808 15.7163 21.1466 16.7133 21.1466C17.6916 21.1466 18.5062 21.8535 18.6683 22.7801M14.7494 22.8336V22.703H14.6396M14.7494 22.8336L14.6202 22.8147C14.6257 22.7771 14.6322 22.7399 14.6396 22.703M8.5767 22.703H14.6396M18.6683 22.7801H21.0649C21.2871 22.7801 21.4955 22.6823 21.6368 22.5119M18.6683 22.7801L18.797 22.7576C18.7906 22.7212 18.7833 22.6852 18.7751 22.6495M18.6683 22.7801V22.6495H18.7751M14.6396 22.703C14.8344 21.7415 15.6903 21.016 16.7133 21.016C17.7173 21.016 18.5599 21.7148 18.7751 22.6495M21.6368 22.5119C21.7207 22.4107 21.7741 22.2913 21.795 22.1656H21.6622M21.6368 22.5119L21.5363 22.4286M18.7751 22.6495H21.0649C21.2484 22.6495 21.4199 22.5689 21.5363 22.4286M21.6622 22.1656C21.6707 22.1235 21.6748 22.0803 21.6742 22.0368L21.8048 22.035M21.6622 22.1656C21.6428 22.261 21.6003 22.3513 21.5363 22.4286M21.8048 22.035V22.0548C21.8049 22.0482 21.8049 22.0416 21.8048 22.035ZM5.3475 19.3731C5.5377 19.7282 5.9073 19.9485 6.3113 19.9485H13.0112C13.2316 20.4578 13.6558 20.8185 14.175 20.8185C14.5535 20.8185 15.012 20.6229 15.3733 20.3204C15.7354 20.0172 16.0251 19.5849 16.0251 19.092C16.0251 18.6508 15.7927 18.2582 15.4858 17.9645C15.1932 17.6844 14.82 17.4812 14.4758 17.4022L13.4956 16.0816C13.2903 15.8052 12.9622 15.6406 12.617 15.6406H7.7607C7.3973 15.6406 7.0587 15.8194 6.8554 16.1193L5.4061 18.256C5.1798 18.5896 5.1573 19.0179 5.3475 19.3731Z" stroke="#A0A8B6" stroke-width="0.261194"/>
<path d="M33.7188 21.8074C33.9428 21.1154 34.2696 19.8718 34.2696 18.5014C34.2696 17.1309 33.9428 15.8872 33.7188 15.1953H34.7694C34.9608 15.7391 35.3675 17.0643 35.3675 18.5014C35.3675 19.9384 34.9608 21.2638 34.7694 21.8074H33.7188Z" fill="#A0A8B6" stroke="#A0A8B6" stroke-width="0.261194"/>
<path d="M28.7188 16.9907L31.4195 15.1953H32.8412C33.0326 15.7389 33.4393 17.0642 33.4394 18.5014C33.4394 19.9385 33.0326 21.2638 32.8412 21.8074H28.7188V16.9907Z" fill="#A0A8B6" stroke="#A0A8B6" stroke-width="0.261194"/>
<path d="M28.3421 16.2339L24.7385 18.6295L23.625 16.9762L25.7746 12.4219L28.3421 16.2339Z" fill="#A0A8B6" stroke="#A0A8B6" stroke-width="0.261194"/>
<path d="M6.49935 21.8438C5.79255 21.8438 5.21875 22.4149 5.21875 23.115C5.21875 23.8152 5.79255 24.3864 6.49935 24.3864C7.20615 24.3864 7.77995 23.8152 7.77995 23.115L6.49935 21.8438ZM6.49935 21.8438C7.20615 21.8438 7.77985 22.4149 7.77995 23.115L6.49935 21.8438Z" fill="#A0A8B6"/>
<path d="M6.49935 21.8438C5.79255 21.8438 5.21875 22.4149 5.21875 23.115C5.21875 23.8152 5.79255 24.3864 6.49935 24.3864C7.20615 24.3864 7.77995 23.8152 7.77995 23.115M6.49935 21.8438L7.77995 23.115M6.49935 21.8438C7.20615 21.8438 7.77985 22.4149 7.77995 23.115" stroke="#A0A8B6" stroke-width="0.261194"/>
<path d="M1.998 20.016V20.6529C1.998 20.8331 1.85 20.9814 1.6665 20.9814H0.875L1.1947 19.6875H1.6664C1.85 19.6875 1.998 19.8358 1.998 20.016Z" fill="#A0A8B6" stroke="#A0A8B6" stroke-width="0.261194"/>
<path d="M8.62421 2.38363C7.36491 2.94533 6.35622 3.75192 5.81301 4.23812L5.38281 3.28633C5.80311 2.89043 6.85131 1.98043 8.17391 1.39043C9.49441 0.801527 10.8788 0.627225 11.4561 0.578125L11.8857 1.52893C11.1588 1.60923 9.88271 1.82233 8.62421 2.38363Z" fill="#A0A8B6" stroke="#A0A8B6" stroke-width="0.261194"/>
<path d="M16.7103 21.8438C16.0035 21.8438 15.4297 22.4149 15.4297 23.115C15.4297 23.8152 16.0035 24.3864 16.7103 24.3864C17.417 24.3864 17.9909 23.8152 17.9909 23.115L16.7103 21.8438ZM16.7103 21.8438C17.417 21.8438 17.9908 22.4149 17.9909 23.115L16.7103 21.8438Z" fill="#A0A8B6"/>
<path d="M16.7103 21.8438C16.0035 21.8438 15.4297 22.4149 15.4297 23.115C15.4297 23.8152 16.0035 24.3864 16.7103 24.3864C17.417 24.3864 17.9909 23.8152 17.9909 23.115M16.7103 21.8438L17.9909 23.115M16.7103 21.8438C17.417 21.8438 17.9908 22.4149 17.9909 23.115" stroke="#A0A8B6" stroke-width="0.261194"/>
<path d="M7.85978 8.77163L6.17188 5.03662C6.59288 4.64032 7.64318 3.72913 8.96288 3.14043C10.2835 2.55133 11.6677 2.37723 12.2449 2.32812L13.9327 6.06282L7.85978 8.77163Z" fill="#A0A8B6" stroke="#A0A8B6" stroke-width="0.261194"/>
<path d="M12.6204 16.4688C12.7018 16.4688 12.7795 16.5078 12.8274 16.5724L13.5565 17.5546C13.12 17.8448 12.8443 18.4271 12.8443 19.0888C12.8443 19.0973 12.8444 19.1058 12.8444 19.1143H10.8516V16.4688H12.6204Z" fill="#A0A8B6" stroke="#A0A8B6" stroke-width="0.261194"/>
<path d="M7.54865 16.5813C7.59625 16.511 7.67585 16.4688 7.76195 16.4688H10.0145V19.1143H6.31255C6.21455 19.1143 6.13105 19.0641 6.08555 18.979C6.04005 18.894 6.04505 18.798 6.09925 18.7181L7.54865 16.5813Z" fill="#A0A8B6" stroke="#A0A8B6" stroke-width="0.261194"/>
</svg>
