<svg width="36" height="35" viewBox="0 0 36 35" fill="none" xmlns="http://www.w3.org/2000/svg">
<path d="M2.93198 31.7317V31.9067H3.10698H35.005C35.18 31.9067 35.3219 32.0486 35.3219 32.2236C35.3219 32.3986 35.18 32.5405 35.005 32.5405H3.10698H2.93198V32.7155V34.505C2.93198 34.68 2.79007 34.8219 2.61507 34.8219C2.44007 34.8219 2.29818 34.68 2.29818 34.505V32.7155V32.5405H2.12318H0.988777C0.813777 32.5405 0.671875 32.3986 0.671875 32.2236C0.671875 32.0486 0.813777 31.9067 0.988777 31.9067H2.12318H2.29818V31.7317V0.488777C2.29818 0.313777 2.44007 0.171875 2.61507 0.171875C2.79007 0.171875 2.93198 0.313777 2.93198 0.488777V31.7317Z" fill="#A0A8B6" stroke="#A0A8B6" stroke-width="0.35"/>
<path d="M18.9853 21.2509L18.8645 21.1744L12.3765 17.0638C12.2565 16.9878 12.1009 17.0007 11.9954 17.0954L5.1679 23.216C5.1008 23.2761 5.0625 23.3619 5.0625 23.452V29.9211C5.0625 30.0962 5.2044 30.238 5.3794 30.238H32.6892C32.8642 30.238 33.0061 30.0962 33.0061 29.9211V13.1996C33.0061 13.1047 32.9636 13.0148 32.8903 12.9546C32.8172 12.8947 32.7208 12.8705 32.6272 12.8888L18.9853 21.2509ZM18.9853 21.2509L19.0843 21.1479L25.6333 14.3356C25.6782 14.289 25.7364 14.2571 25.8002 14.2444L18.9853 21.2509ZM32.3723 29.6042H32.1973H5.8713H5.6963V29.4292V23.6716V23.5935L5.7545 23.5413L12.1412 17.8159L12.2399 17.7275L12.3517 17.7984L18.8647 21.9249C18.9919 22.0055 19.1583 21.9853 19.2628 21.8769M32.3723 29.6042L19.2628 21.8769M32.3723 29.6042V29.4292V13.7987V13.5855L32.1632 13.6271L26.0751 14.836L26.0212 14.8467L25.9831 14.8864L19.2628 21.8769" stroke="#A0A8B6" stroke-width="0.35"/>
<path d="M6.67942 17.4492L6.58562 17.5333L6.63562 17.649C6.70722 17.8146 6.74733 17.9968 6.74733 18.1885C6.74733 18.9414 6.13442 19.5543 5.38142 19.5543C4.62852 19.5543 4.01562 18.9414 4.01562 18.1885C4.01562 17.4356 4.62852 16.8227 5.38142 16.8227C5.62502 16.8227 5.85342 16.8876 6.05212 17.0002L6.16153 17.0623L6.25523 16.9783L10.8347 12.8737L10.9273 12.7907L10.8794 12.676C10.812 12.5145 10.7745 12.3377 10.7745 12.1519C10.7745 11.399 11.3873 10.7861 12.1403 10.7861C12.8932 10.7861 13.5061 11.399 13.5061 12.1519C13.5061 12.2261 13.4985 12.3001 13.486 12.3756L13.467 12.49L13.565 12.5521L17.8908 15.2928L18.0053 15.3653L18.1041 15.2727C18.3491 15.043 18.6764 14.9019 19.0363 14.9019C19.2733 14.9019 19.4959 14.9627 19.6902 15.0692L19.8077 15.1336L19.9005 15.037L24.6078 10.1415L24.6928 10.0531L24.6387 9.94301C24.5492 9.76101 24.498 9.55821 24.498 9.34341C24.498 8.59051 25.1108 7.97762 25.8638 7.97762C26.3514 7.97762 26.7798 8.23571 27.0219 8.62341L27.0859 8.72591L27.2045 8.70231L31.1989 7.90881L31.3221 7.88432L31.3383 7.75971C31.4253 7.08971 31.9987 6.57031 32.6912 6.57031C33.4442 6.57031 34.057 7.18322 34.057 7.93612C34.057 8.68892 33.4442 9.30182 32.6912 9.30182C32.1862 9.30182 31.7445 9.02531 31.5079 8.61481L31.4452 8.50602L31.3221 8.53051L27.3631 9.31701L27.2352 9.34241L27.223 9.47221C27.1579 10.1652 26.573 10.7093 25.8638 10.7093C25.6445 10.7093 25.4375 10.6561 25.2528 10.5631L25.1375 10.505L25.048 10.5981L20.3161 15.5191L20.2343 15.6042L20.2826 15.712C20.359 15.8824 20.4022 16.07 20.4022 16.2677C20.4022 17.0207 19.7893 17.6336 19.0363 17.6336C18.2834 17.6336 17.6705 17.0207 17.6705 16.2677C17.6705 16.1932 17.6782 16.1188 17.6908 16.043L17.7099 15.9285L17.6118 15.8664L13.2867 13.1261L13.1722 13.0535L13.0733 13.1464C12.8282 13.3765 12.5007 13.5178 12.1403 13.5178C11.8909 13.5178 11.6575 13.4494 11.4553 13.3315L11.3452 13.2673L11.2503 13.3523L6.67942 17.4492ZM33.4232 7.93612C33.4232 7.53232 33.095 7.20411 32.6912 7.20411C32.2874 7.20411 31.9592 7.53232 31.9592 7.93612C31.9592 8.33982 32.2874 8.66811 32.6912 8.66811C33.095 8.66811 33.4232 8.33982 33.4232 7.93612ZM26.5958 9.34341C26.5958 8.93971 26.2676 8.61141 25.8638 8.61141C25.46 8.61141 25.1318 8.93971 25.1318 9.34341C25.1318 9.74721 25.46 10.0755 25.8638 10.0755C26.2676 10.0755 26.5958 9.74721 26.5958 9.34341ZM19.7684 16.2677C19.7684 15.864 19.4401 15.5357 19.0363 15.5357C18.6325 15.5357 18.3043 15.864 18.3043 16.2677C18.3043 16.6716 18.6325 16.9998 19.0363 16.9998C19.4401 16.9998 19.7684 16.6715 19.7684 16.2677ZM12.8723 12.1519C12.8723 11.7482 12.5441 11.4199 12.1403 11.4199C11.7365 11.4199 11.4083 11.7482 11.4083 12.1519C11.4083 12.5557 11.7365 12.884 12.1403 12.884C12.5441 12.884 12.8723 12.5557 12.8723 12.1519ZM6.11353 18.1885C6.11353 17.7848 5.78522 17.4565 5.38142 17.4565C4.97762 17.4565 4.64943 17.7848 4.64943 18.1885C4.64943 18.5922 4.97762 18.9205 5.38142 18.9205C5.78522 18.9205 6.11353 18.5922 6.11353 18.1885Z" fill="#A0A8B6" stroke="#A0A8B6" stroke-width="0.35"/>
</svg>
