<svg width="35" height="35" viewBox="0 0 35 35" fill="none" xmlns="http://www.w3.org/2000/svg">
<g clip-path="url(#clip0_9_321)">
<path d="M14.5243 1.18639C10.43 2.45473 7.45605 6.27116 7.45605 10.7823C7.45605 12.814 8.05987 14.7044 9.09695 16.285L17.5003 29.1038L25.9034 16.2853C26.9407 14.7047 27.5446 12.8142 27.5446 10.7823C27.5446 6.26289 24.5596 2.44099 20.4537 1.17969" stroke="#A0A8B6" stroke-width="1.36719" stroke-miterlimit="10" stroke-linecap="round" stroke-linejoin="round"/>
<path d="M5.8418 31.6826H14.9204" stroke="#A0A8B6" stroke-width="1.36719" stroke-miterlimit="10" stroke-linecap="round" stroke-linejoin="round"/>
<path d="M20.0791 31.6826H29.1577" stroke="#A0A8B6" stroke-width="1.36719" stroke-miterlimit="10" stroke-linecap="round" stroke-linejoin="round"/>
<circle cx="17.5" cy="31.6826" r="0.683594" fill="#A0A8B6"/>
<path d="M17.5002 34.2621C18.9247 34.2621 20.0794 33.1073 20.0794 31.6828C20.0794 30.2583 18.9247 29.1035 17.5002 29.1035C16.0757 29.1035 14.9209 30.2583 14.9209 31.6828C14.9209 33.1073 16.0757 34.2621 17.5002 34.2621Z" stroke="#A0A8B6" stroke-width="1.36719" stroke-miterlimit="10" stroke-linecap="round" stroke-linejoin="round"/>
<path d="M3.26286 34.2621C4.68735 34.2621 5.84213 33.1073 5.84213 31.6828C5.84213 30.2583 4.68735 29.1035 3.26286 29.1035C1.83837 29.1035 0.683594 30.2583 0.683594 31.6828C0.683594 33.1073 1.83837 34.2621 3.26286 34.2621Z" stroke="#A0A8B6" stroke-width="1.36719" stroke-miterlimit="10" stroke-linecap="round" stroke-linejoin="round"/>
<path d="M31.7375 34.2621C33.162 34.2621 34.3167 33.1073 34.3167 31.6828C34.3167 30.2583 33.162 29.1035 31.7375 29.1035C30.313 29.1035 29.1582 30.2583 29.1582 31.6828C29.1582 33.1073 30.313 34.2621 31.7375 34.2621Z" stroke="#A0A8B6" stroke-width="1.36719" stroke-miterlimit="10" stroke-linecap="round" stroke-linejoin="round"/>
<path d="M17.4998 17.7603C21.3705 17.7603 24.5083 14.6224 24.5083 10.7517C24.5083 6.881 21.3705 3.74316 17.4998 3.74316C13.629 3.74316 10.4912 6.881 10.4912 10.7517C10.4912 14.6224 13.629 17.7603 17.4998 17.7603Z" stroke="#A0A8B6" stroke-width="1.36719" stroke-miterlimit="10" stroke-linecap="round" stroke-linejoin="round"/>
<path d="M17.5005 13.9086C19.2455 13.9086 20.6601 12.494 20.6601 10.749C20.6601 9.00397 19.2455 7.58936 17.5005 7.58936C15.7554 7.58936 14.3408 9.00397 14.3408 10.749C14.3408 12.494 15.7554 13.9086 17.5005 13.9086Z" stroke="#A0A8B6" stroke-width="1.36719" stroke-miterlimit="10" stroke-linecap="round" stroke-linejoin="round"/>
<path d="M17.5 8.95733V6.41211" stroke="#A0A8B6" stroke-width="1.36719" stroke-miterlimit="10" stroke-linecap="round" stroke-linejoin="round"/>
<path d="M17.5 15.1815V12.6362" stroke="#A0A8B6" stroke-width="1.36719" stroke-miterlimit="10" stroke-linecap="round" stroke-linejoin="round"/>
<path d="M19.3389 10.7964H21.8841" stroke="#A0A8B6" stroke-width="1.36719" stroke-miterlimit="10" stroke-linecap="round" stroke-linejoin="round"/>
<path d="M13.1152 10.7964H15.6605" stroke="#A0A8B6" stroke-width="1.36719" stroke-miterlimit="10" stroke-linecap="round" stroke-linejoin="round"/>
<circle cx="17.5" cy="0.738281" r="0.683594" fill="#A0A8B6"/>
</g>
<defs>
<clipPath id="clip0_9_321">
<rect width="35" height="35" fill="white"/>
</clipPath>
</defs>
</svg>
